<svg width="120" height="120" viewBox="0 0 120 120" fill="none" xmlns="http://www.w3.org/2000/svg">
<path d="M89.5 86.95C88.2 82.95 84.45 80 80 80H75V65C75 63.6739 74.4732 62.4021 73.5355 61.4645C72.5979 60.5268 71.3261 60 70 60H40V50H50C51.3261 50 52.5979 49.4732 53.5355 48.5355C54.4732 47.5979 55 46.3261 55 45V35H65C67.6522 35 70.1957 33.9464 72.0711 32.0711C73.9464 30.1957 75 27.6522 75 25V22.95C80.9824 25.3618 86.2912 29.1874 90.4721 34.0992C94.653 39.011 97.5815 44.8627 99.0067 51.1536C100.432 57.4444 100.312 63.9869 98.656 70.221C97.0003 76.4552 93.8587 82.1953 89.5 86.95ZM55 99.65C35.25 97.2 20 80.4 20 60C20 56.9 20.4 53.9 21.05 51.05L45 75V80C45 82.6522 46.0536 85.1957 47.9289 87.0711C49.8043 88.9464 52.3478 90 55 90M60 10C53.4339 10 46.9321 11.2933 40.8658 13.806C34.7995 16.3188 29.2876 20.0017 24.6447 24.6447C15.2678 34.0215 10 46.7392 10 60C10 73.2608 15.2678 85.9785 24.6447 95.3553C29.2876 99.9983 34.7995 103.681 40.8658 106.194C46.9321 108.707 53.4339 110 60 110C73.2608 110 85.9785 104.732 95.3553 95.3553C104.732 85.9785 110 73.2608 110 60C110 53.4339 108.707 46.9321 106.194 40.8658C103.681 34.7995 99.9983 29.2876 95.3553 24.6447C90.7124 20.0017 85.2005 16.3188 79.1342 13.806C73.0679 11.2933 66.5661 10 60 10Z" fill="white"/>
</svg>
